<mxfile host="app.diagrams.net" modified="2020-09-22T03:15:31.293Z" agent="5.0 (Windows NT 10.0; Win64; x64) AppleWebKit/537.36 (KHTML, like Gecko) Chrome/85.0.4183.102 Safari/537.36" etag="7wyJYShqzyJEVyHCEaQE" version="13.7.3" type="github">
  <diagram id="VxwpdV8dTUdYNORsaoQw" name="Page-1">
    <mxGraphModel dx="780" dy="1103" grid="1" gridSize="10" guides="1" tooltips="1" connect="1" arrows="1" fold="1" page="1" pageScale="1" pageWidth="850" pageHeight="1100" math="0" shadow="0">
      <root>
        <mxCell id="0" />
        <mxCell id="1" parent="0" />
        <mxCell id="stS1s8CcGsvVjPebMNRK-48" value="" style="rounded=0;whiteSpace=wrap;html=1;rotation=-90;" vertex="1" parent="1">
          <mxGeometry x="137.5" y="262.5" width="685" height="560" as="geometry" />
        </mxCell>
        <mxCell id="stS1s8CcGsvVjPebMNRK-16" style="edgeStyle=orthogonalEdgeStyle;rounded=0;orthogonalLoop=1;jettySize=auto;html=1;" edge="1" parent="1" source="stS1s8CcGsvVjPebMNRK-3" target="stS1s8CcGsvVjPebMNRK-8">
          <mxGeometry relative="1" as="geometry" />
        </mxCell>
        <mxCell id="stS1s8CcGsvVjPebMNRK-3" value="Actor" style="shape=umlActor;verticalLabelPosition=bottom;verticalAlign=top;html=1;outlineConnect=0;" vertex="1" parent="1">
          <mxGeometry x="40" y="485" width="80" height="130" as="geometry" />
        </mxCell>
        <mxCell id="stS1s8CcGsvVjPebMNRK-4" value="Insert DVD" style="ellipse;whiteSpace=wrap;html=1;" vertex="1" parent="1">
          <mxGeometry x="421" y="405" width="115" height="80" as="geometry" />
        </mxCell>
        <mxCell id="stS1s8CcGsvVjPebMNRK-6" value="Connect DVD player to screen" style="ellipse;whiteSpace=wrap;html=1;" vertex="1" parent="1">
          <mxGeometry x="418.5" y="615" width="120" height="80" as="geometry" />
        </mxCell>
        <mxCell id="stS1s8CcGsvVjPebMNRK-41" style="edgeStyle=orthogonalEdgeStyle;rounded=0;orthogonalLoop=1;jettySize=auto;html=1;entryX=0;entryY=0.5;entryDx=0;entryDy=0;" edge="1" parent="1" source="stS1s8CcGsvVjPebMNRK-8" target="stS1s8CcGsvVjPebMNRK-11">
          <mxGeometry relative="1" as="geometry" />
        </mxCell>
        <mxCell id="stS1s8CcGsvVjPebMNRK-8" value="Select DVD to watch" style="ellipse;whiteSpace=wrap;html=1;" vertex="1" parent="1">
          <mxGeometry x="240" y="510" width="120" height="80" as="geometry" />
        </mxCell>
        <mxCell id="stS1s8CcGsvVjPebMNRK-9" value="Plug in DVD player power" style="ellipse;whiteSpace=wrap;html=1;" vertex="1" parent="1">
          <mxGeometry x="421" y="300" width="115" height="80" as="geometry" />
        </mxCell>
        <mxCell id="stS1s8CcGsvVjPebMNRK-10" value="Watch Video" style="ellipse;whiteSpace=wrap;html=1;" vertex="1" parent="1">
          <mxGeometry x="600" y="510" width="120" height="80" as="geometry" />
        </mxCell>
        <mxCell id="stS1s8CcGsvVjPebMNRK-46" style="edgeStyle=orthogonalEdgeStyle;rounded=0;orthogonalLoop=1;jettySize=auto;html=1;entryX=0;entryY=0.5;entryDx=0;entryDy=0;" edge="1" parent="1" source="stS1s8CcGsvVjPebMNRK-11" target="stS1s8CcGsvVjPebMNRK-10">
          <mxGeometry relative="1" as="geometry" />
        </mxCell>
        <mxCell id="stS1s8CcGsvVjPebMNRK-11" value="Pug in screen power" style="ellipse;whiteSpace=wrap;html=1;" vertex="1" parent="1">
          <mxGeometry x="423.5" y="510" width="115" height="80" as="geometry" />
        </mxCell>
        <mxCell id="stS1s8CcGsvVjPebMNRK-12" value="Hit Play button" style="ellipse;whiteSpace=wrap;html=1;" vertex="1" parent="1">
          <mxGeometry x="421" y="720" width="115" height="80" as="geometry" />
        </mxCell>
        <mxCell id="stS1s8CcGsvVjPebMNRK-15" value="&lt;font style=&quot;font-size: 20px&quot;&gt;DVD Player&lt;/font&gt;" style="text;html=1;strokeColor=none;fillColor=none;align=center;verticalAlign=middle;whiteSpace=wrap;rounded=0;" vertex="1" parent="1">
          <mxGeometry x="407.5" y="250" width="155" height="20" as="geometry" />
        </mxCell>
        <mxCell id="stS1s8CcGsvVjPebMNRK-37" value="" style="edgeStyle=elbowEdgeStyle;elbow=horizontal;endArrow=classic;html=1;exitX=1;exitY=0.5;exitDx=0;exitDy=0;entryX=0;entryY=0.5;entryDx=0;entryDy=0;" edge="1" parent="1" source="stS1s8CcGsvVjPebMNRK-8" target="stS1s8CcGsvVjPebMNRK-9">
          <mxGeometry width="50" height="50" relative="1" as="geometry">
            <mxPoint x="340" y="450" as="sourcePoint" />
            <mxPoint x="390" y="400" as="targetPoint" />
            <Array as="points">
              <mxPoint x="380" y="450" />
            </Array>
          </mxGeometry>
        </mxCell>
        <mxCell id="stS1s8CcGsvVjPebMNRK-38" value="" style="edgeStyle=elbowEdgeStyle;elbow=horizontal;endArrow=classic;html=1;entryX=0;entryY=0.5;entryDx=0;entryDy=0;" edge="1" parent="1" target="stS1s8CcGsvVjPebMNRK-4">
          <mxGeometry width="50" height="50" relative="1" as="geometry">
            <mxPoint x="367" y="550" as="sourcePoint" />
            <mxPoint x="417" y="500" as="targetPoint" />
            <Array as="points">
              <mxPoint x="400" y="500" />
            </Array>
          </mxGeometry>
        </mxCell>
        <mxCell id="stS1s8CcGsvVjPebMNRK-39" value="" style="edgeStyle=elbowEdgeStyle;elbow=horizontal;endArrow=classic;html=1;entryX=0;entryY=0.5;entryDx=0;entryDy=0;" edge="1" parent="1" target="stS1s8CcGsvVjPebMNRK-6">
          <mxGeometry width="50" height="50" relative="1" as="geometry">
            <mxPoint x="370" y="550" as="sourcePoint" />
            <mxPoint x="600" y="500" as="targetPoint" />
            <Array as="points">
              <mxPoint x="400" y="600" />
            </Array>
          </mxGeometry>
        </mxCell>
        <mxCell id="stS1s8CcGsvVjPebMNRK-40" value="" style="edgeStyle=elbowEdgeStyle;elbow=horizontal;endArrow=classic;html=1;entryX=0;entryY=0.5;entryDx=0;entryDy=0;exitX=1;exitY=0.5;exitDx=0;exitDy=0;" edge="1" parent="1" source="stS1s8CcGsvVjPebMNRK-8" target="stS1s8CcGsvVjPebMNRK-12">
          <mxGeometry width="50" height="50" relative="1" as="geometry">
            <mxPoint x="317" y="695" as="sourcePoint" />
            <mxPoint x="367" y="645" as="targetPoint" />
            <Array as="points">
              <mxPoint x="380" y="650" />
            </Array>
          </mxGeometry>
        </mxCell>
        <mxCell id="stS1s8CcGsvVjPebMNRK-42" value="" style="edgeStyle=elbowEdgeStyle;elbow=horizontal;endArrow=classic;html=1;entryX=0;entryY=0.5;entryDx=0;entryDy=0;exitX=1;exitY=0.5;exitDx=0;exitDy=0;" edge="1" parent="1" source="stS1s8CcGsvVjPebMNRK-9" target="stS1s8CcGsvVjPebMNRK-10">
          <mxGeometry width="50" height="50" relative="1" as="geometry">
            <mxPoint x="550" y="550" as="sourcePoint" />
            <mxPoint x="600" y="500" as="targetPoint" />
            <Array as="points">
              <mxPoint x="580" y="370" />
            </Array>
          </mxGeometry>
        </mxCell>
        <mxCell id="stS1s8CcGsvVjPebMNRK-43" value="" style="edgeStyle=elbowEdgeStyle;elbow=horizontal;endArrow=classic;html=1;entryX=0;entryY=0.5;entryDx=0;entryDy=0;exitX=1;exitY=0.5;exitDx=0;exitDy=0;" edge="1" parent="1" source="stS1s8CcGsvVjPebMNRK-4" target="stS1s8CcGsvVjPebMNRK-10">
          <mxGeometry width="50" height="50" relative="1" as="geometry">
            <mxPoint x="550" y="440" as="sourcePoint" />
            <mxPoint x="600" y="500" as="targetPoint" />
            <Array as="points">
              <mxPoint x="560" y="500" />
            </Array>
          </mxGeometry>
        </mxCell>
        <mxCell id="stS1s8CcGsvVjPebMNRK-44" value="" style="edgeStyle=elbowEdgeStyle;elbow=horizontal;endArrow=classic;html=1;entryX=0;entryY=0.5;entryDx=0;entryDy=0;exitX=1;exitY=0.5;exitDx=0;exitDy=0;" edge="1" parent="1" source="stS1s8CcGsvVjPebMNRK-6" target="stS1s8CcGsvVjPebMNRK-10">
          <mxGeometry width="50" height="50" relative="1" as="geometry">
            <mxPoint x="550" y="550" as="sourcePoint" />
            <mxPoint x="600" y="500" as="targetPoint" />
            <Array as="points">
              <mxPoint x="560" y="600" />
            </Array>
          </mxGeometry>
        </mxCell>
        <mxCell id="stS1s8CcGsvVjPebMNRK-45" value="" style="edgeStyle=elbowEdgeStyle;elbow=horizontal;endArrow=classic;html=1;exitX=1;exitY=0.5;exitDx=0;exitDy=0;entryX=0;entryY=0.5;entryDx=0;entryDy=0;" edge="1" parent="1" source="stS1s8CcGsvVjPebMNRK-12" target="stS1s8CcGsvVjPebMNRK-10">
          <mxGeometry width="50" height="50" relative="1" as="geometry">
            <mxPoint x="560" y="770" as="sourcePoint" />
            <mxPoint x="610" y="720" as="targetPoint" />
            <Array as="points">
              <mxPoint x="580" y="660" />
            </Array>
          </mxGeometry>
        </mxCell>
      </root>
    </mxGraphModel>
  </diagram>
</mxfile>
